<mxfile host="app.diagrams.net" modified="2023-04-26T13:05:34.916Z" agent="Mozilla/5.0 (Windows NT 10.0; Win64; x64) AppleWebKit/537.36 (KHTML, like Gecko) Chrome/112.0.0.0 Safari/537.36" etag="hpSNdz2oo8E3gQiZy2rQ" version="21.1.7" type="device">
  <diagram name="Page-1" id="eg4JVhWLuixrQ--yud_n">
    <mxGraphModel dx="765" dy="386" grid="0" gridSize="10" guides="1" tooltips="1" connect="1" arrows="1" fold="1" page="1" pageScale="1" pageWidth="827" pageHeight="1169" math="0" shadow="0">
      <root>
        <mxCell id="0" />
        <mxCell id="1" parent="0" />
        <mxCell id="ejJHAwWw0yzN9HpbpLnq-1" value="Blogging Web&amp;nbsp;&lt;br&gt;Application" style="ellipse;whiteSpace=wrap;html=1;aspect=fixed;" vertex="1" parent="1">
          <mxGeometry x="396" y="167" width="97" height="97" as="geometry" />
        </mxCell>
        <mxCell id="ejJHAwWw0yzN9HpbpLnq-3" value="User" style="rounded=1;whiteSpace=wrap;html=1;" vertex="1" parent="1">
          <mxGeometry x="119" y="195.5" width="108" height="54.5" as="geometry" />
        </mxCell>
        <mxCell id="ejJHAwWw0yzN9HpbpLnq-4" value="" style="endArrow=classic;html=1;rounded=0;" edge="1" parent="1">
          <mxGeometry width="50" height="50" relative="1" as="geometry">
            <mxPoint x="148" y="193" as="sourcePoint" />
            <mxPoint x="440" y="169" as="targetPoint" />
            <Array as="points">
              <mxPoint x="148" y="151" />
              <mxPoint x="440" y="151" />
            </Array>
          </mxGeometry>
        </mxCell>
        <mxCell id="ejJHAwWw0yzN9HpbpLnq-5" value="Authentication Request" style="text;html=1;align=center;verticalAlign=middle;resizable=0;points=[];autosize=1;strokeColor=none;fillColor=none;" vertex="1" parent="1">
          <mxGeometry x="227" y="120" width="142" height="26" as="geometry" />
        </mxCell>
        <mxCell id="ejJHAwWw0yzN9HpbpLnq-6" value="" style="endArrow=classic;html=1;rounded=0;" edge="1" parent="1">
          <mxGeometry width="50" height="50" relative="1" as="geometry">
            <mxPoint x="416" y="176" as="sourcePoint" />
            <mxPoint x="174" y="195" as="targetPoint" />
            <Array as="points">
              <mxPoint x="174" y="174" />
            </Array>
          </mxGeometry>
        </mxCell>
        <mxCell id="ejJHAwWw0yzN9HpbpLnq-7" value="Response Token" style="text;html=1;align=center;verticalAlign=middle;resizable=0;points=[];autosize=1;strokeColor=none;fillColor=none;" vertex="1" parent="1">
          <mxGeometry x="233" y="152" width="107" height="26" as="geometry" />
        </mxCell>
        <mxCell id="ejJHAwWw0yzN9HpbpLnq-8" value="" style="endArrow=classic;html=1;rounded=0;exitX=0.991;exitY=0.138;exitDx=0;exitDy=0;exitPerimeter=0;" edge="1" parent="1" source="ejJHAwWw0yzN9HpbpLnq-3">
          <mxGeometry width="50" height="50" relative="1" as="geometry">
            <mxPoint x="387" y="251" as="sourcePoint" />
            <mxPoint x="397" y="203" as="targetPoint" />
          </mxGeometry>
        </mxCell>
        <mxCell id="ejJHAwWw0yzN9HpbpLnq-9" value="Create blogs" style="text;html=1;align=center;verticalAlign=middle;resizable=0;points=[];autosize=1;strokeColor=none;fillColor=none;" vertex="1" parent="1">
          <mxGeometry x="252" y="179" width="86" height="26" as="geometry" />
        </mxCell>
        <mxCell id="ejJHAwWw0yzN9HpbpLnq-10" value="Reader" style="rounded=0;whiteSpace=wrap;html=1;" vertex="1" parent="1">
          <mxGeometry x="648" y="181" width="120" height="60" as="geometry" />
        </mxCell>
        <mxCell id="ejJHAwWw0yzN9HpbpLnq-11" value="" style="endArrow=classic;html=1;rounded=0;exitX=1;exitY=0;exitDx=0;exitDy=0;" edge="1" parent="1" source="ejJHAwWw0yzN9HpbpLnq-1">
          <mxGeometry width="50" height="50" relative="1" as="geometry">
            <mxPoint x="479" y="170" as="sourcePoint" />
            <mxPoint x="660" y="177" as="targetPoint" />
            <Array as="points">
              <mxPoint x="479" y="164" />
              <mxPoint x="660" y="164" />
            </Array>
          </mxGeometry>
        </mxCell>
        <mxCell id="ejJHAwWw0yzN9HpbpLnq-12" value="Response Token" style="text;html=1;align=center;verticalAlign=middle;resizable=0;points=[];autosize=1;strokeColor=none;fillColor=none;" vertex="1" parent="1">
          <mxGeometry x="507" y="141" width="107" height="26" as="geometry" />
        </mxCell>
        <mxCell id="ejJHAwWw0yzN9HpbpLnq-14" value="" style="endArrow=classic;html=1;rounded=0;entryX=0.619;entryY=0.021;entryDx=0;entryDy=0;entryPerimeter=0;" edge="1" parent="1" target="ejJHAwWw0yzN9HpbpLnq-1">
          <mxGeometry width="50" height="50" relative="1" as="geometry">
            <mxPoint x="691" y="177" as="sourcePoint" />
            <mxPoint x="437" y="201" as="targetPoint" />
            <Array as="points">
              <mxPoint x="691" y="144" />
              <mxPoint x="456" y="146" />
            </Array>
          </mxGeometry>
        </mxCell>
        <mxCell id="ejJHAwWw0yzN9HpbpLnq-15" value="Authentication Request" style="text;html=1;align=center;verticalAlign=middle;resizable=0;points=[];autosize=1;strokeColor=none;fillColor=none;" vertex="1" parent="1">
          <mxGeometry x="489.5" y="115" width="142" height="26" as="geometry" />
        </mxCell>
        <mxCell id="ejJHAwWw0yzN9HpbpLnq-16" value="" style="endArrow=classic;html=1;rounded=0;exitX=0.008;exitY=0.4;exitDx=0;exitDy=0;exitPerimeter=0;entryX=1;entryY=0.392;entryDx=0;entryDy=0;entryPerimeter=0;" edge="1" parent="1" source="ejJHAwWw0yzN9HpbpLnq-10" target="ejJHAwWw0yzN9HpbpLnq-1">
          <mxGeometry width="50" height="50" relative="1" as="geometry">
            <mxPoint x="387" y="251" as="sourcePoint" />
            <mxPoint x="496" y="207" as="targetPoint" />
          </mxGeometry>
        </mxCell>
        <mxCell id="ejJHAwWw0yzN9HpbpLnq-17" value="Read/view" style="text;html=1;align=center;verticalAlign=middle;resizable=0;points=[];autosize=1;strokeColor=none;fillColor=none;" vertex="1" parent="1">
          <mxGeometry x="523.5" y="181" width="74" height="26" as="geometry" />
        </mxCell>
        <mxCell id="ejJHAwWw0yzN9HpbpLnq-18" value="" style="endArrow=classic;html=1;rounded=0;exitX=0;exitY=0.75;exitDx=0;exitDy=0;" edge="1" parent="1">
          <mxGeometry width="50" height="50" relative="1" as="geometry">
            <mxPoint x="648" y="227" as="sourcePoint" />
            <mxPoint x="492" y="226" as="targetPoint" />
          </mxGeometry>
        </mxCell>
        <mxCell id="ejJHAwWw0yzN9HpbpLnq-19" value="Comment&amp;nbsp;" style="text;html=1;align=center;verticalAlign=middle;resizable=0;points=[];autosize=1;strokeColor=none;fillColor=none;" vertex="1" parent="1">
          <mxGeometry x="534" y="206" width="73" height="26" as="geometry" />
        </mxCell>
      </root>
    </mxGraphModel>
  </diagram>
</mxfile>
